<svg width="15" height="14" viewBox="0 0 15 14" fill="none" xmlns="http://www.w3.org/2000/svg">
    <path fill-rule="evenodd" clip-rule="evenodd"
        d="M7.8562 0C9.27247 0 10.6887 0.435777 11.8327 1.30733C9.87166 1.96099 7.96514 2.88702 6.22204 3.97646C4.31552 5.17484 2.46347 6.64559 0.992723 8.33422C0.938251 7.95291 0.829307 7.51714 0.829307 7.13584C0.774835 3.15938 3.93421 0 7.8562 0ZM12.2684 1.57969C12.4318 1.74311 12.5953 1.90652 12.8131 2.01547C12.8676 2.06994 13.031 2.23335 13.14 2.39677C10.9611 3.10491 8.94564 3.97646 7.14806 5.22931C5.02365 6.53664 3.11713 8.06186 1.4285 9.91391C1.37403 9.69602 1.26508 9.36919 1.21061 9.1513C1.15614 9.09683 1.15614 8.93341 1.04719 8.82447C2.62688 7.02689 4.47893 5.50167 6.54887 4.24882C8.2375 3.15938 10.1985 2.3423 12.2684 1.57969ZM13.4123 2.77807C13.5758 2.94149 13.6302 3.10491 13.7392 3.21385C13.7936 3.26832 13.9026 3.43174 13.9571 3.54068C11.6692 4.30329 9.54483 5.28378 7.63831 6.48217C5.56837 7.68055 3.7708 9.31471 2.08216 11.0578C2.02769 10.8944 1.86427 10.731 1.75533 10.622C1.70086 10.5676 1.70086 10.4586 1.59191 10.4042C3.28055 8.49764 5.18707 6.91795 7.31148 5.61062C9.10905 4.4667 11.179 3.48621 13.4123 2.77807ZM14.1749 4.03093C14.2294 4.19435 14.3384 4.35776 14.3928 4.46671C14.7197 5.28379 14.8286 6.15534 14.8286 7.02689C14.8286 10.8944 11.7237 13.9993 7.8562 13.9993C5.73179 13.9993 3.87974 13.0733 2.62688 11.657C2.57241 11.6025 2.46347 11.4936 2.40899 11.4391C3.98868 9.69602 5.84073 8.1708 7.91067 6.86348C9.76272 5.66509 11.8871 4.79354 14.1749 4.03093Z"
        fill="white" />
</svg>