<svg width="17" height="16" viewBox="0 0 17 16" fill="none" xmlns="http://www.w3.org/2000/svg">
    <path fill-rule="evenodd" clip-rule="evenodd"
        d="M16.6984 1.00293C16.6984 0.766949 16.5214 0.530974 16.3444 0.235996C16.1085 0.0590099 15.8725 0 15.5185 0C15.2825 0 14.9285 0.118013 14.8105 0.353995L12.2737 2.89079C11.9198 2.71381 11.5658 2.6548 11.0938 2.6548C10.6219 2.6548 10.0909 2.89078 9.79593 3.24475L1.06459 12.1531C0.946601 12.2121 0.828613 12.5071 0.828613 12.8611C0.828613 13.097 0.887605 13.333 1.06459 13.687C1.30057 14.1589 1.77254 14.6899 2.06751 14.9259C2.53948 15.3389 3.48341 16.1058 4.19136 15.9878C4.54533 15.9878 4.8403 15.8698 5.01729 15.6338L13.6896 6.8435C14.3386 6.07656 14.3976 5.13262 13.8666 4.36568L16.4034 1.82888C16.5804 1.5929 16.6984 1.3569 16.6984 1.00293ZM11.8018 3.12679L9.73693 6.66652C9.50095 7.07949 9.14698 7.49243 8.911 7.96439C9.26497 7.72841 9.67794 7.49245 10.0909 7.13848L13.6896 4.83764C13.6306 4.66065 13.5126 4.60165 13.3357 4.42466L12.0968 3.24475C12.0968 3.24475 11.9198 3.12679 11.8018 3.12679Z"
        fill="white" />
</svg>