<svg width="25" height="24" viewBox="0 0 25 24" fill="none" xmlns="http://www.w3.org/2000/svg">
    <g clip-path="url(#clip0_12_1062)">
        <path
            d="M18.8286 16.08C18.0686 16.08 17.3886 16.38 16.8686 16.85L9.73861 12.7C9.78861 12.47 9.82861 12.24 9.82861 12C9.82861 11.76 9.78861 11.53 9.73861 11.3L16.7886 7.19C17.3286 7.69 18.0386 8 18.8286 8C20.4886 8 21.8286 6.66 21.8286 5C21.8286 3.34 20.4886 2 18.8286 2C17.1686 2 15.8286 3.34 15.8286 5C15.8286 5.24 15.8686 5.47 15.9186 5.7L8.86861 9.81C8.32861 9.31 7.61861 9 6.82861 9C5.16861 9 3.82861 10.34 3.82861 12C3.82861 13.66 5.16861 15 6.82861 15C7.61861 15 8.32861 14.69 8.86861 14.19L15.9886 18.35C15.9386 18.56 15.9086 18.78 15.9086 19C15.9086 20.61 17.2186 21.92 18.8286 21.92C20.4386 21.92 21.7486 20.61 21.7486 19C21.7486 17.39 20.4386 16.08 18.8286 16.08Z"
            fill="white" />
    </g>
    <defs>
        <clipPath id="clip0_12_1062">
            <rect width="24" height="24" fill="white" transform="translate(0.828613)" />
        </clipPath>
    </defs>
</svg>